<?xml version="1.0" encoding="utf-8"?>
<!-- Generator: Adobe Illustrator 22.1.0, SVG Export Plug-In . SVG Version: 6.00 Build 0)  -->
<svg version="1.1" xmlns="http://www.w3.org/2000/svg" xmlns:xlink="http://www.w3.org/1999/xlink" x="0px" y="0px"
	 viewBox="0 0 595.3 841.9" style="enable-background:new 0 0 595.3 841.9;" xml:space="preserve">
<style type="text/css">
	.st0{fill:#FFFFFF;}
	.st1{fill:#FFFFFF;stroke:#FFFFFF;stroke-width:3;stroke-miterlimit:10;}
	.st2{fill:none;stroke:#FFFFFF;stroke-width:6;stroke-linecap:round;stroke-miterlimit:10;}
	.st3{stroke:#FFFFFF;stroke-width:6;stroke-miterlimit:10;}
	.st4{fill:none;stroke:#FFFFFF;stroke-width:6;stroke-miterlimit:10;}
	.st5{fill:#F6F6F6;}
</style>
<g id="Ebene_1">
</g>
<g id="Ebene_2">
	<g>
		<path d="M130.4,454.2c0.5-1.9,1.5-2.5,3.5-2.4c15.7,0.1,31.4,0.1,47.4,0.1c0,12.3,0,24.6,0,37.2c-1,0.1-2.1,0.2-3.2,0.2
			c-5.5,0-11,0-16.5,0c-2.4,0-4.1-0.3-5.7-2.6c-2.5-3.7-8.6-3.7-11.9-0.5c-3.4,3.3-3.3,9.3,0.2,12.6c3.5,3.2,9.1,3,11.8-0.8
			c1.5-2.2,3.2-2.5,5.5-2.5c13.5,0.1,27.1,0,40.6,0c1.8,0,3.1,0.1,4.2,2.1c1.9,3.3,6.8,4.3,10.2,2.6c4-2.1,5.8-6.3,4.5-10.2
			c-1.5-4.2-5.3-6.9-9.3-5.7c-2,0.6-3.7,2.2-5.6,3.4c-1,0.6-2.1,1.6-3.2,1.7c-4.9,0.2-9.7,0.1-14.8,0.1c-0.1-1.3-0.2-2.3-0.2-3.3
			c0-12.7-0.1-25.4,0.1-38.1c0-1.9-0.5-2.3-2.2-2.3c-5.8,0.1-11.6,0-17.7,0c0-8.9,0-17.5,0-26.5c12,0,23.9,0,35.7,0.1
			c0.8,0,1.8,1.1,2.5,1.9c2.2,2.7,4.9,4,8.5,3.2c3.7-0.8,5.6-3.4,6.5-6.8c1-3.6-1.4-7.9-5-9.4c-3.7-1.5-8.1-0.2-10.2,2.9
			c-0.5,0.7-1.5,1.6-2.2,1.6c-4.1,0.2-8.3,0.1-12.8,0.1c0-5.9,0-11.7,0.1-17.5c0-0.6,0.9-1.2,1.5-1.7c2.6-2.4,3.6-6.3,2.3-9.4
			c-1.4-3.6-4.4-5.6-8.1-5.6c-3.5,0.1-6.7,2.5-7.8,6c-1,3.2,0.1,7.1,3.2,9.1c1.8,1.2,2.2,2.5,2.2,4.3c0,4.8,0,9.6,0,14.8
			c-5.1,0-10,0-15,0c-8,0-8,0-8,7.8c0,7.7,0.1,15.4,0,23.1c0,0.7-1,1.8-1.6,1.9c-9.4,0.1-18.9,0.1-28.5,0.1
			c0.8-13,3.2-25.3,7.1-37.4c6.3-19.4,16.2-36.8,29.4-52.3c12.6-14.9,27.7-26.8,44.9-35.8c15.8-8.2,32.6-13.5,50.4-15.9
			c20.1-2.6,39.9-0.9,59.3,4.6c19.1,5.4,36.4,14.4,52,26.9c17.8,14.2,31.6,31.4,41.7,51.8c7.8,15.6,12.5,32.1,14.8,49.4
			c2.8,21.5,0.8,42.4-5.2,63.1c-4.2,14.4-10.6,27.8-18.8,40.3c-10.6,16.2-23.8,29.8-39.5,40.9c-17.7,12.5-37.3,20.9-58.7,24.8
			c-13.5,2.5-27,3.3-40.6,1.9c-31.4-3.3-59.3-14.8-83.4-35.2c-18.6-15.8-32.5-34.9-42-57.3c-6.1-14.3-9.8-29.2-11.2-44.7
			c-0.4-4.4-0.8-8.8-1.2-13.3C130.4,456.3,130.4,455.3,130.4,454.2z M280.6,605.3c7-0.6,13.4-1.2,19.7-1.8
			c15.6-1.5,30.3-6.1,44.2-12.9c20.7-10,38.2-24.2,52.4-42.4c11.3-14.4,19.7-30.4,25-47.9c5.9-19.8,8.1-39.9,5.7-60.6
			c-2.2-19.5-7.7-38-17.1-55.1c-9.4-17.3-21.8-32.4-37.3-44.8c-12.7-10.2-26.6-18.2-41.9-23.8c-15.3-5.7-31.2-8.2-47.5-8.9
			c-2.9-0.1-3.5,0.9-3.5,3.5c0.1,11.3,0.1,22.7,0.1,34c0,1.1,0,2.2,0,3.3c-17.9,1.6-27.9,14.1-29.4,28.6c-0.7,6.7,0.9,13.2,4.6,18.9
			c5.7,8.9,14.1,13.7,24.5,14.6c0,5,0,9.6,0,14.6c-9.9,0-19.5,0-29.1,0c0,46.6,0,92.9,0,139.5c9.8,0,19.5,0,29.4,0
			C280.6,577.8,280.6,591.1,280.6,605.3z"/>
		<path class="st0" d="M280.6,605.3c0-14.1,0-27.5,0-41.2c-10,0-19.6,0-29.4,0c0-46.6,0-92.8,0-139.5c9.6,0,19.2,0,29.1,0
			c0-5,0-9.6,0-14.6c-10.4-0.9-18.8-5.7-24.5-14.6c-3.7-5.8-5.3-12.2-4.6-18.9c1.5-14.5,11.5-27,29.4-28.6c0-1.1,0-2.2,0-3.3
			c0-11.3,0.1-22.7-0.1-34c0-2.6,0.6-3.6,3.5-3.5c16.3,0.7,32.2,3.2,47.5,8.9c15.3,5.6,29.1,13.6,41.9,23.8
			c15.5,12.4,27.9,27.5,37.3,44.8c9.4,17.2,14.9,35.6,17.1,55.1c2.3,20.7,0.2,40.8-5.7,60.6c-5.3,17.5-13.7,33.4-25,47.9
			c-14.2,18.2-31.7,32.4-52.4,42.4c-13.9,6.7-28.7,11.4-44.2,12.9C293.9,604.1,287.5,604.6,280.6,605.3z M257.3,430.6
			c0,42.7,0,84.9,0,127.2c7.8,0,15.4,0,23,0c0-42.5,0-84.8,0-127.2C272.5,430.6,265,430.6,257.3,430.6z M280.3,403.9
			c0-17,0-33.8,0-50.7c-14.3,0.8-24.8,13-23.8,27.6C257.4,394.1,269.8,404.4,280.3,403.9z M281.6,429.5c7.5,0,14.6,0.2,21.8-0.1
			c3-0.1,3.6,1,3.6,3.7c-0.1,40.7-0.1,81.3,0,122c0,2.9-0.7,4-3.8,3.9c-7.1-0.2-14.3-0.1-21.5-0.1c0,1.5,0,2.6,0,3.8
			c10,0,19.8,0,29.7,0c0-45.8,0-91.4,0-137.1c-10,0-19.8,0-29.8,0C281.6,426.9,281.6,428,281.6,429.5z M281.6,352.3
			c14.6-0.2,25.4,11.8,26.1,24.8c0.7,12.5-7.2,26.6-26.1,28.6c0,1.1,0,2.2,0,3.2c16.3,0.7,31.7-15,29.3-33.9
			c-2-15.9-16.6-27-29.4-25.9C281.6,350.1,281.6,351.1,281.6,352.3z"/>
		<path d="M257.3,430.6c7.7,0,15.3,0,23,0c0,42.4,0,84.7,0,127.2c-7.6,0-15.2,0-23,0C257.3,515.5,257.3,473.2,257.3,430.6z"/>
		<path d="M280.3,403.9c-10.5,0.4-22.9-9.9-23.8-23c-1-14.7,9.5-26.9,23.8-27.6C280.3,370.1,280.3,386.9,280.3,403.9z"/>
		<path d="M281.6,429.5c0-1.5,0-2.6,0-3.9c10,0,19.8,0,29.8,0c0,45.7,0,91.3,0,137.1c-9.9,0-19.7,0-29.7,0c0-1.2,0-2.3,0-3.8
			c7.2,0,14.4-0.2,21.5,0.1c3.1,0.1,3.8-0.9,3.8-3.9c-0.1-40.7-0.1-81.3,0-122c0-2.7-0.5-3.8-3.6-3.7
			C296.2,429.7,289,429.5,281.6,429.5z"/>
		<path d="M281.6,352.3c0-1.2,0-2.2,0-3.2c12.8-1.1,27.4,10,29.4,25.9c2.4,18.9-13,34.6-29.3,33.9c0-1.1,0-2.2,0-3.2
			c18.9-2,26.8-16.1,26.1-28.6C306.9,364,296.2,352.1,281.6,352.3z"/>
	</g>
	<path d="M265.9,421.3c0,0,25.8-6.5,50.5,4s29.6,28.1,32.2,38.5c3.5,14,15.2,19,16.5,24.8c0.7,3.4-8.3,4.4-8.5,5.8
		c-0.2,2,5.4,4.4,7.4,5.6c2.8,1.6,6.2,2.9,5.7,6.3c-0.4,2.9-17.6,3.1-23.1,3.1s-5.2-0.8-9,2.2c-1.6,1.3-22.9-15.8-51.2-15
		c-36.6,1.1-72.9,29.6-82.7,26.9c-6.4-1.7,1.2-19.1,8.4-27.4s3-7,1-6.8s-15.7-0.5-17.8-2.2c-3.8-3.2,15.2-12,19.5-15.2
		c8.5-6.5,12.9-21.1,14-28c1.1-6.8,28.6-18.9,35.5-21.8C265.3,421.5,265.9,421.3,265.9,421.3z"/>
	<path d="M265.9,421.3c0,0-30.5-19-40.5-19.2s4.5,44,5,47s16.5,11.2,18.5,12.5S265.9,421.3,265.9,421.3z"/>
	<path d="M339.2,468c0,0,15.8-39.5,16-50.5c0.1-11.1-40.6,6.4-45.2,7c-4.6,0.7-12.2,3.4-14,5.6C294,432.4,339.2,468,339.2,468z"/>
	<path d="M208.8,523.3c0,0,8.8-2.8,21.5,10.9c11.8,12.6,19.6,1.6,20.6,19.4c0.1,2.2-6.1,0.9-12.2,9.2c-7.6,10.4-0.8,25.5,2.2,29.3
		c14.2,18,61.3,13.3,72.7,12.1c10.9-1.1,23.8-9,30.3-12.1c26.2-12.8,9.6-27.3,5.6-32.6c-5.2-6.8-24.1-18.2-18.2-24.8
		c13-14.5,28.2-18.2,22.5-29.5s-97-14-97-14L208.8,523.3z"/>
	<path d="M350.4,503c0,0,6,2.2,9.8,10s0.8,8-0.2,8s-11-0.9-17.8,3.6C331.4,531.8,350.4,503,350.4,503z"/>
	<g>
		<path d="M240,510.6c-7.5,1-14.8,2.2-22,3.7l-10.7,2.3c-3.6,0.8-7.1,1.7-10.6,2.9c-6.9,2.5-13.5,5.8-19.6,10
			c-6.2,4.1-11.7,9.2-16.7,14.8l0,0c-0.1,0.1-0.3,0.1-0.4,0c-0.1-0.1-0.1-0.3,0-0.4c2.2-3.1,4.5-6.1,7.1-8.9
			c2.5-2.8,5.4-5.4,8.3-7.9c3-2.4,6.1-4.6,9.4-6.7c3.3-2,6.7-3.8,10.3-5.3c3.5-1.6,7.1-3,10.8-4.2c3.7-1.2,7.5-2,11.3-2.5
			c3.8-0.4,7.7-0.5,11.6-0.3c3.9,0.2,7.7,0.8,11.4,2c0.2,0.1,0.2,0.2,0.2,0.4C240.3,510.5,240.2,510.6,240,510.6L240,510.6z"/>
	</g>
	<g>
		<path d="M271.1,515.8c-7.6,0.2-15,0.4-22.3,1.1l-10.9,1c-3.6,0.3-7.3,0.8-10.8,1.7c-7.1,1.7-14.1,4.2-20.7,7.6
			c-6.6,3.4-12.7,7.8-18.3,12.7l0,0c-0.1,0.1-0.3,0.1-0.4,0c-0.1-0.1-0.1-0.3,0-0.4c2.5-2.8,5.1-5.6,8.1-8c2.9-2.5,5.9-4.8,9.1-6.9
			c3.2-2.1,6.6-3.9,10.1-5.6c3.5-1.6,7.1-2.9,10.8-4.1c3.7-1.1,7.4-2.1,11.2-2.9c3.8-0.8,7.7-1.1,11.6-1.1c3.9,0,7.7,0.4,11.5,1.1
			c3.8,0.7,7.6,1.6,11.1,3.3c0.2,0.1,0.2,0.3,0.2,0.4C271.3,515.7,271.2,515.8,271.1,515.8L271.1,515.8z"/>
	</g>
	<g>
		<path d="M305.1,515.1c3.6-1.6,7.3-2.6,11.1-3.3c3.8-0.7,7.7-1,11.5-1.1c3.9,0,7.7,0.4,11.6,1.1c3.8,0.8,7.5,1.8,11.2,2.9
			c3.7,1.2,7.3,2.5,10.8,4.1c3.5,1.7,6.9,3.5,10.1,5.6c3.2,2.1,6.3,4.4,9.1,6.9c2.9,2.4,5.5,5.2,8.1,8c0.1,0.1,0.1,0.3,0,0.4
			c-0.1,0.1-0.3,0.1-0.4,0l0,0c-5.6-5-11.7-9.4-18.3-12.7c-6.6-3.4-13.5-5.9-20.7-7.6c-3.6-0.8-7.2-1.3-10.8-1.7l-10.9-1
			c-7.3-0.7-14.7-0.9-22.3-1.1l0,0c-0.2,0-0.3-0.1-0.3-0.3C304.9,515.2,305,515.1,305.1,515.1z"/>
	</g>
	<g>
		<path d="M280.6,517.2c3.6-1.6,7.3-2.6,11.1-3.3c3.8-0.7,7.7-1,11.5-1.1c3.9,0,7.7,0.4,11.6,1.1c3.8,0.8,7.5,1.8,11.2,2.9
			c3.7,1.2,7.3,2.5,10.8,4.1c3.5,1.7,6.9,3.5,10.1,5.6c3.2,2.1,6.3,4.4,9.1,6.9c2.9,2.4,5.5,5.2,8.1,8c0.1,0.1,0.1,0.3,0,0.4
			c-0.1,0.1-0.3,0.1-0.4,0l0,0c-5.6-5-11.7-9.4-18.3-12.7c-6.6-3.4-13.5-5.9-20.7-7.6c-3.6-0.8-7.2-1.3-10.8-1.7l-10.9-1
			c-7.3-0.7-14.7-0.9-22.3-1.1l0,0c-0.2,0-0.3-0.1-0.3-0.3C280.4,517.4,280.5,517.3,280.6,517.2z"/>
	</g>
	<g>
		<path class="st0" d="M339.5,466.1c-1-1.3-2.3-2.3-3.7-3.1c-1.4-0.8-2.8-1.4-4.3-1.8c-0.8-0.1-1.5-0.3-2.3-0.3
			c-0.4,0-0.8-0.1-1.1-0.1c-0.4,0-0.8-0.1-1.1-0.1c-0.8-0.2-1.5-0.2-2.4-0.4c-0.8-0.1-1.6-0.3-2.5-0.6l0,0c-0.1,0-0.1-0.1-0.1-0.2
			c0,0,0-0.1,0.1-0.1c0.8-0.5,1.6-0.9,2.4-1.2c0.9-0.2,1.7-0.5,2.6-0.5c1.8-0.2,3.6,0.6,5.2,1.3c1.7,0.7,3.2,1.7,4.5,2.9
			c1.3,1.2,2.4,2.6,3.1,4.2c0,0.1,0,0.2-0.1,0.2C339.6,466.2,339.6,466.2,339.5,466.1L339.5,466.1z"/>
	</g>
	<g>
		<path class="st0" d="M239,458c0.1-2.1,0.8-4.2,2.1-6c0.3-0.4,0.6-0.9,1-1.3c0.4-0.4,0.8-0.8,1.2-1.1c0.4-0.3,0.9-0.7,1.4-0.9
			c0.5-0.2,1-0.6,1.5-0.8c2.1-0.9,4.4-1.3,6.5-1c1.1,0.2,2.1,0.5,3.1,0.9c1,0.5,1.9,1,2.8,1.6c0.1,0.1,0.1,0.2,0,0.2
			c0,0-0.1,0.1-0.1,0.1l0,0c-1.1,0.2-2.1,0.2-3.1,0.2c-1,0.1-2,0.1-2.9,0c-0.5,0-0.9,0.1-1.4,0c-0.5,0-0.9-0.1-1.4,0
			c-0.5,0-0.9,0-1.4,0l-1.4,0.3c-1.8,0.5-3.4,1.4-4.8,2.8c-1.4,1.4-2.3,3.2-2.9,5.1l0,0c0,0.1-0.1,0.1-0.2,0.1
			C239,458.1,239,458.1,239,458z"/>
	</g>
	<path class="st1" d="M283.5,521.5c0,0,13-7.3,12.9-10.1c-0.2-3.2-4.2-3.1-11.1-3.6c-4-0.3-8.5-0.8-9.4-0.5
		c-1.7,0.7-2.8,2.5-1.7,4.3S281.4,521.3,283.5,521.5z"/>
	<g>
		<path class="st0" d="M284.4,517.4c-0.9,2.3-0.8,4.5-0.7,6.8c0,0.6,0.1,1.2,0,1.8c0,0.2,0,0.3-0.1,0.6c0,0.2-0.1,0.3-0.2,0.4
			c-0.1,0.1-0.1,0.2-0.2,0.3c-0.1,0.2-0.2,0.3-0.3,0.4l-0.3,0.4c-0.7,0.9-1.5,1.8-2.4,2.6c-1.7,1.6-3.6,2.9-5.7,4.1
			c-1,0.6-2.2,1.1-3.4,1.5l-0.9,0.3c-0.3,0.1-0.7,0.1-1,0.2c-0.3,0.1-0.7,0.1-1.1,0.1c-0.4,0-0.8,0-1.1,0c-1.4-0.2-2.5-0.5-3.7-0.9
			c-1.2-0.4-2.3-0.9-3.4-1.4c-2.2-1.1-4.2-2.5-6-4.5c-0.9-1-1.6-2.2-2-3.6c-0.1-0.4-0.2-0.7-0.2-1.1c-0.1-0.4-0.1-0.7-0.1-1.1
			c0-0.7,0.2-1.5,0.4-2.2c0.5-1.4,1.3-2.5,2.2-3.3c0.9-0.9,2-1.4,3.1-1.9c0.2-0.1,0.5,0,0.6,0.2c0.1,0.2,0.1,0.3,0,0.5l0,0
			c-0.6,1-1.3,1.8-1.7,2.7c-0.5,0.9-0.8,1.8-0.8,2.6c-0.1,0.8,0.1,1.5,0.4,2.2c0.3,0.7,0.8,1.4,1.4,2.1c1.3,1.3,3,2.5,4.8,3.5
			c0.9,0.5,1.8,0.9,2.8,1.3c0.9,0.4,1.9,0.7,2.8,0.8c1.4,0.2,3.4-0.5,5.2-1.5c1.8-1,3.7-2.1,5.5-3.3c0.9-0.6,1.9-1.1,2.8-1.7
			l0.6-0.4c0,0,0.1-0.1,0.1,0c0,0,0,0,0,0.1c0,0,0.1-0.2,0.1-0.2c0.1-0.5,0.3-1,0.3-1.5c0.3-2.2,0.3-4.5-0.8-6.6
			c-0.4-0.8-0.1-1.8,0.7-2.2c0.8-0.4,1.8-0.1,2.2,0.7C284.6,516.5,284.6,517,284.4,517.4z"/>
	</g>
	<g>
		<path class="st0" d="M285,518.6c-1.2,2.2-1.1,4.5-0.7,6.8c0.1,0.5,0.2,1.1,0.4,1.5c0,0.1,0.1,0.2,0.1,0c0,0,0-0.1-0.1-0.1
			c0,0-0.1-0.1-0.1-0.1c0,0,0.1,0,0.1,0l0.7,0.2l3.2,0.9c4.3,1.1,8.3,3.5,12.6,4.4c1,0.2,2.1,0.5,3,0.5c0.5,0,0.7,0,1.1-0.1
			c0.4-0.1,0.8-0.3,1.3-0.5c1.7-0.8,3.4-2.1,4.6-3.6c1.2-1.5,2-3.3,1.8-5c-0.1-1.7-1.1-3.4-2.4-5.3l0,0c-0.2-0.3-0.1-0.8,0.2-1
			c0.2-0.1,0.5-0.2,0.7-0.1c1.2,0.5,2.2,1.2,3.1,2.2c0.9,1,1.6,2.3,1.8,3.7c0.3,1.4,0.1,2.9-0.3,4.2c-0.4,1.3-1.1,2.5-1.9,3.6
			c-1.6,2.1-3.6,3.8-6,4.9c-0.6,0.3-1.3,0.5-2,0.7c-0.7,0.2-1.6,0.3-2.3,0.2c-1.4-0.1-2.6-0.3-3.8-0.6c-1.2-0.3-2.3-0.7-3.4-1
			l-3.4-1c-2.3-0.6-4.4-1.5-6.5-2.7c-1-0.6-2-1.2-3-2c-0.2-0.2-0.5-0.4-0.8-0.6l-0.2-0.2c0,0-0.1-0.1-0.2-0.2
			c-0.1-0.1-0.2-0.2-0.2-0.3c-0.2-0.4-0.2-0.6-0.2-0.8c0-0.7,0.1-1.3,0.1-1.9c0.2-2.4,0.5-4.6-0.6-7c-0.4-0.8,0-1.8,0.8-2.2
			c0.8-0.4,1.8,0,2.2,0.8C285.3,517.6,285.2,518.1,285,518.6z"/>
	</g>
	<path class="st0" d="M261.9,533.4c0,0-0.1,7.8,1.6,9c1.7,1.2,8.7,0.4,10.2-8.5C272.8,534.3,261.9,533.4,261.9,533.4z"/>
	<path class="st0" d="M297.4,535.1c0,0-1,4.6-0.1,6.3c0.9,1.8,1.5,3.8,3.2,3.4c1.7-0.4,5.2-3.3,6.3-5.2c1.1-1.8,2.5-5.7,1.1-5.5
		C306.5,534.4,297.4,535.1,297.4,535.1z"/>
	<path class="st2" d="M307.5,535.4c5.6,7.4,10.2,17.5,11,35"/>
	<path class="st2" d="M316.7,555.9c0,0,2.5,10.9,10.5,10.2"/>
	<path class="st2" d="M316.2,553.8c0,0,1.2,9.1-6.3,11.3"/>
	<path class="st3" d="M254.2,565.4c1.3,18.6-13.3,34.7-24.7,34.7c-11.4,0-20.3-10.7-19-29.3c1-14,7.7-37,22.3-36
		C244.2,535.5,252.8,546.1,254.2,565.4z"/>
	<path class="st4" d="M253.8,525.8c0,0-21.2-2.8-25.7,30"/>
	<path class="st4" d="M211.8,559.1c0,0,30.7-5.3,40.7,0"/>
	<g>
		<path class="st0" d="M336.2,494c-2,0.3-3.8,0.4-5.7,0.5c-1.8,0.1-3.6,0.4-5.3,0.6c-1.7,0.2-3.5,0.2-5.3,0.9
			c-1.7,0.6-3.1,2-3.9,3.6l0.1-0.2c0-0.1,0-0.1,0-0.2c0-0.1,0-0.1,0-0.3c0-0.1-0.2-0.3-0.3-0.4c-0.1-0.1-0.2-0.1-0.2-0.1
			c-0.2,0-0.2,0-0.3,0c0,0,0,0,0.1-0.1l0.3-0.2l0.7-0.5l1.4-1c1-0.7,2-1.2,3.1-1.7c2.2-0.9,4.6-1.7,7.1-1.8c2.5-0.1,5.1,0.4,7.3,1.6
			c2.2,1.1,4.1,2.9,5.2,4.9c0.1,0.1,0,0.2-0.1,0.3c-0.1,0-0.1,0-0.2,0c-2.1-1-4.1-1.7-6.1-2.1c-2-0.4-4-0.5-6-0.4
			c-2,0.1-4.1,0.3-6.1,0.8l-3.2,0.8c-0.5,0.1-1.1,0.3-1.6,0.4l-0.8,0.2l-0.5,0.1c-0.1,0-0.2,0-0.3,0.1c-0.1,0-0.2,0.1-0.5,0
			c-0.1,0-0.2-0.1-0.3-0.1c-0.1-0.1-0.3-0.2-0.3-0.4c-0.1-0.2,0-0.2-0.1-0.3c0-0.1,0-0.2,0-0.2l0-0.2l0.1-0.1
			c1.3-1.5,2.8-2.8,4.4-4.1c0.8-0.6,1.6-1.2,2.5-1.8c0.9-0.5,1.9-0.9,2.9-1.2c2-0.5,4.1-0.4,6.1-0.1c1,0.2,2,0.4,2.9,0.7
			c0.9,0.3,1.9,0.7,2.7,1.3c0.1,0.1,0.1,0.2,0.1,0.3C336.3,493.9,336.3,493.9,336.2,494L336.2,494z"/>
	</g>
	<g>
		<path class="st0" d="M237,487.3c0.9-0.5,1.9-0.9,2.8-1.1c1-0.3,2-0.4,3-0.5c2-0.1,4.1,0,6.1,0.8c2,0.8,3.7,2.2,5,3.8
			c1.4,1.5,2.5,3.1,3.6,4.9l0.1,0.1l0,0.1c0,0.1,0,0.2,0,0.4c0,0.1-0.1,0.3-0.2,0.4c-0.1,0.1-0.2,0.1-0.3,0.2c-0.3,0.1-0.3,0-0.4,0
			c-0.1,0-0.1,0-0.2,0c-0.2-0.1-0.3-0.1-0.3-0.1l-0.4-0.2l-0.8-0.4c-0.5-0.2-1-0.5-1.6-0.7l-3-1.2c-2-0.8-4-1.3-6-1.5
			c-2-0.3-3.9-0.3-6,0.1c-2,0.3-4.1,1.1-6.3,2c-0.1,0-0.2,0-0.3-0.1c0-0.1,0-0.1,0-0.2c1.3-2,3.2-3.7,5.5-4.8c2.3-1.1,5-1.5,7.6-1.2
			c2.6,0.3,4.9,1.4,7,2.6c1,0.6,2,1.4,2.9,2.2c0.4,0.4,0.9,0.8,1.3,1.2l0.6,0.6l0.3,0.2c0,0,0.1,0.1,0,0.1c0,0,0,0-0.1,0
			c-0.1,0-0.1,0-0.3,0c-0.1,0-0.2,0.1-0.3,0.1c-0.1,0.1-0.2,0.2-0.2,0.3c0,0.1,0,0.2,0,0.3l0.1,0.2c-0.5-1.7-1.6-3.4-3.2-4.3
			c-1.6-1-3.4-1.3-5-1.7c-1.7-0.4-3.4-0.8-5.2-1.1c-1.8-0.3-3.7-0.6-5.6-1l0,0c-0.1,0-0.2-0.1-0.2-0.2
			C236.9,487.4,237,487.3,237,487.3z"/>
	</g>
	<g>
		<path class="st0" d="M258.2,416.2c-5-2.1-9.9-4.3-14.9-6.4c-1.2-0.5-2.5-1-3.7-1.5c-1.2-0.5-2.5-0.9-3.7-1.4
			c-1.2-0.5-2.4-1-3.7-1.4c-0.3-0.1-0.6-0.2-0.9-0.2c-0.3-0.1-0.7-0.1-0.9-0.1c-0.5,0-1,0.2-1.4,0.6c-0.4,0.4-0.7,1-0.9,1.6
			c-0.2,0.6-0.3,1.2-0.4,1.9c-0.2,1.3-0.2,2.6-0.2,4c0.1,2.7,0.4,5.4,0.8,8c0.8,5.3,2,10.6,3.4,15.8c-0.7-2.6-1.4-5.2-2-7.9
			c-0.6-2.6-1.2-5.3-1.7-7.9c-0.5-2.7-0.9-5.3-1.1-8.1c-0.1-1.4-0.1-2.7,0-4.1c0.1-0.7,0.2-1.4,0.4-2.1c0.2-0.7,0.5-1.4,1-2
			c0.5-0.6,1.3-1,2.1-1.1c0.4-0.1,0.7,0,1.1-0.1c0.4,0,0.7,0,1.1,0c1.4,0.1,2.8,0.3,4.2,0.7c1.3,0.4,2.6,0.9,3.9,1.5
			c1.3,0.6,2.5,1.1,3.7,1.7C249.1,410.2,253.8,413,258.2,416.2z"/>
	</g>
	<g>
		<path d="M229.3,459.2c-2.3,5.5-5.6,10.9-10,14.3c-4.2,3.2-23.2,12-19.5,15.2c0.9,0.8,4.5,1.4,8.2,1.8c-4.4,3.5-8.6,7.2-10.7,10.4
			c-2.8,4.2-3.1,8.8,2,7.8c2.7-0.6,6.5-0.7,10.4-0.7c-3.9,7.7-5.9,15.9-1.6,17.1c4.1,1.1,12.9-3.2,24.3-8.7"/>
		<path class="st5" d="M229.3,459.2c-0.9,4.3-2.8,8.5-5.6,12c-0.7,0.9-1.5,1.7-2.4,2.5c-0.8,0.8-1.9,1.5-2.8,2.1
			c-1.9,1.2-3.8,2.2-5.7,3.3c-1.9,1.1-3.8,2.1-5.6,3.2c-1.8,1.1-3.7,2.2-5.2,3.5c-0.4,0.3-0.8,0.7-1,1c-0.3,0.3-0.5,0.7-0.5,0.9
			c0,0.1,0,0.1,0,0.1c0,0.1,0.1,0.1,0.2,0.2c0.3,0.2,0.8,0.4,1.2,0.6c2,0.6,4.1,1,6.2,1.5l0,0l1.1,0.1l-0.8,0.7
			c-2.3,2-4.7,4-6.8,6.1c-1,1.1-2.1,2.2-3.1,3.3c-0.9,1.2-1.7,2.5-2.2,3.9c-0.2,0.7-0.4,1.4-0.5,2.1c0,0.7,0.1,1.4,0.6,1.7
			c0.5,0.4,1.2,0.5,1.9,0.4c0.4,0,0.7-0.1,1.1-0.1c0.4-0.1,0.8-0.1,1.2-0.2c3.1-0.4,6.2-0.4,9.3-0.4l0.5,0l-0.2,0.5
			c-1.7,3.3-3.2,6.8-3.9,10.4c-0.2,0.9-0.2,1.8-0.2,2.7c0,0.9,0.2,1.8,0.7,2.5c0.5,0.7,1.4,1.1,2.3,1.2c0.9,0.1,1.8,0,2.7-0.2
			c1.8-0.3,3.6-1,5.3-1.6c1.7-0.7,3.5-1.4,5.2-2.2c3.4-1.5,6.8-3.1,10.2-4.7c-3.4,1.6-6.7,3.3-10.1,4.9c-1.7,0.8-3.4,1.5-5.2,2.2
			c-1.7,0.7-3.5,1.3-5.4,1.7c-0.9,0.2-1.9,0.3-2.8,0.2c-0.9-0.1-2-0.5-2.6-1.3c-0.6-0.8-0.8-1.8-0.9-2.8c0-1,0-1.9,0.2-2.8
			c0.7-3.7,2.1-7.3,3.8-10.6l0.3,0.5c-3.1,0-6.1,0-9.1,0.5c-0.4,0.1-0.7,0.1-1.1,0.2c-0.4,0.1-0.8,0.1-1.2,0.2
			c-0.8,0.1-1.7,0-2.5-0.6c-0.8-0.6-1-1.6-1-2.4c0-0.8,0.2-1.6,0.5-2.4c0.5-1.5,1.3-2.9,2.2-4.2c0.9-1.3,1.9-2.5,3-3.6
			c2.2-2.2,4.6-4.1,7.1-5.9l0.2,0.8l0,0c-2.2-0.1-4.4-0.1-6.6-0.6c-0.6-0.1-1.1-0.3-1.8-0.6c-0.4-0.2-0.7-0.5-1-0.9
			c-0.3-0.4-0.4-1-0.3-1.4c0.1-0.9,0.5-1.5,0.9-2c0.4-0.5,0.8-0.9,1.2-1.4c3.4-3.1,7.2-5.3,11-7.5c1.9-1.1,3.8-2.1,5.6-3.3
			c0.9-0.6,1.7-1.1,2.5-1.8c0.8-0.6,1.5-1.4,2.2-2.1C224.5,466.5,226.9,462.9,229.3,459.2z"/>
	</g>
	<g>
		<path class="st5" d="M261.1,512.7c-7.5,1-14.8,2.2-22,3.7l-10.7,2.3c-3.6,0.8-7.1,1.7-10.6,2.9c-6.9,2.5-13.5,5.8-19.6,10
			c-6.2,4.1-11.7,9.2-16.7,14.8l0,0c-0.1,0.1-0.3,0.1-0.4,0c-0.1-0.1-0.1-0.3,0-0.4c2.2-3.1,4.5-6.1,7.1-8.9
			c2.5-2.8,5.4-5.4,8.3-7.9c3-2.4,6.1-4.6,9.4-6.7c3.3-2,6.7-3.8,10.3-5.3c3.5-1.6,7.1-3,10.8-4.2c3.7-1.2,7.5-2,11.3-2.5
			c3.8-0.4,7.7-0.5,11.6-0.3c3.9,0.2,7.7,0.8,11.4,2c0.2,0.1,0.2,0.2,0.2,0.4C261.3,512.6,261.2,512.7,261.1,512.7L261.1,512.7z"/>
	</g>
	<g>
		<path d="M125.1,350.1l0.3-0.1l19.6,12.5l0.3,0.1l-2,2.8l-17.1-10.3c-0.9,1.2-1.9,2.8-2.7,4c-0.5-0.3-1.2-0.7-1.8-1.2
			c-0.4-0.3-0.8-0.5-1.2-0.8L125.1,350.1z"/>
		<path d="M115,370.6c-1.3-2.2-0.2-4.7,0.8-6.5c0.1-0.2,0.2-0.3,0.3-0.5c1.3-1.1,2.2-1.3,3.3-1.4c1.7-0.2,4.6,1.2,7.7,2.9
			c2.7,1.5,5.4,3.2,7.7,4.5c1.3,0.8,2.5,2,2.8,3.5c0,1.1-0.4,2.4-1.1,3.6c-0.8,1.5-2,2.9-2.8,3.4c-1.5,1-3.9,0.1-6.2-1.2
			c-1.4-0.8-2.8-1.7-3.9-2.3C120.2,374.6,116.2,372.7,115,370.6z M133.2,375.7c0.5-0.8,1.1-1.9,0-2.7c-3.1-2.1-7.6-4.6-11.1-6.4
			c-0.7-0.4-2.5-0.9-3.1,0c-0.6,0.5-1,2.3,0,3c3,2.3,7.4,4.3,12,6.7C131.9,376.6,132.6,376.3,133.2,375.7z"/>
		<path d="M125.3,392c0.2-0.4,0.3-0.8,0.5-1.1c0.7-1.6,1.3-3.3,0-4.6c-2.1-1.2-4-2.2-6-3c-1.7-0.7-3.3-1.4-5.1-2
			c-2.9-1.1-4.3,1.9-4.9,3.7c-1-0.5-1.7-0.8-3.2-1.5c0.7-1.6,3.2-7.2,6.2-6.6c1.6,0.3,4.3,1.2,7.2,2.5c2.8,1.3,5.8,2.8,8.3,4.5
			c1.8,1.2,1.9,2.6,1.6,4.7c0,1-0.4,2.3-1.1,3.9c-0.2,0.4-0.3,0.7-0.5,1.1L125.3,392z"/>
		<path d="M101.7,397c1.4,0,4.3,0.9,5.9,1.1c0.7-1.5,0.8-2.7,1.4-4.5l-5.1-3.5c0.4-0.8,1.1-2,1.6-2.8l1.8,1.2l18.3,12.1
			c-0.2,0.5-0.5,1.4-1,2.7c-0.2,0.5-0.3,1-0.4,1.3c-7.6-0.7-16.1-2.7-23.6-3.5C101,399.8,101.3,398.2,101.7,397z M120.3,400.7
			c-2.7-1.5-5.6-3.5-8.2-5c-0.4,1.1-0.5,1.9-0.9,3C114.2,399.1,116.3,399.7,120.3,400.7z"/>
		<path d="M117.7,414.5c-2.8-0.8-6.3-1.6-9.8-2.5c-2.8-0.8-6.6-1.4-9.6-2.4l1-3.9l0.8,0.3c6.1,2.1,12.9,3.5,18.7,4.9
			c0.4-1.3,0.7-2.6,1-4c0.5,0.2,1,0.3,1.5,0.5c0.5,0.1,1,0.2,1.8,0.4c-0.3,1.3-0.6,2.6-1,3.9c-0.7,2.7-1.6,5.5-2.2,8
			c-0.6-0.1-1.3-0.3-3.3-0.8C116.9,417.6,117.4,415.8,117.7,414.5z"/>
		<path d="M96.3,417.7c1.6,0.4,4.8,1.3,6.9,1.7c0.1,0,0.2,0,16.2,2.9c0,0.5-0.1,1-0.2,1.4c-0.2,0.9-0.4,1.7-0.6,2.6
			c-7.3-1.3-15.7-2.7-23.1-4.2L96.3,417.7z"/>
		<path d="M103,440.1c-3.6-0.4-6.8-1.1-8.1-2.2c-0.9-0.8-1.5-1.4-1.9-3.1c0.1-0.6,0.1-1.2,0.2-1.8c0.2-1.8,0.7-3.7,2.2-4.4
			c2.1-1,7.4-0.3,11.3,0c1.4,0.1,3,0.2,4.6,0.4c2.6,0.3,5.1,1,5.7,2.7c0.3,0.8,0.5,2.5,0.3,4.1c-0.2,1.4-0.6,2.8-1.4,3.6
			c-1.1,1.1-2.7,1.6-4.2,1.5C109.2,440.7,106,440.4,103,440.1z M112.4,437.3c1.3,0,1.5-1.3,1.6-2.2c-0.1-0.9-0.5-1.5-1.4-1.8
			c-5.2-0.7-9.3-1-14.4-1.2c-0.8,0-1.2,0.7-1.3,1.4c0,0.3,0,0.5,0,0.8c0,1.1,1.1,1.5,1.9,1.6C102.8,436.4,108.7,437.2,112.4,437.3z"
			/>
		<path d="M112.5,458.4c-5.9-0.2-11.7-0.6-18-0.8c-0.7,0-1.5,0-2.2-0.1c0-0.3,0-0.7,0-1c0-0.8,0.1-1.6,0.1-2.2
			c4.3-2.2,10-4,14.5-6.2c-4.3,0-10.1-0.1-14.4-0.1l0.3-3.9c8.4,0.4,15.6,0.5,23.5,0.8l0.1,3.3c-4.9,2.3-10,4-15.2,6.2l14.8,0.2
			l-0.1,3.9C114.7,458.5,113.6,458.5,112.5,458.4z"/>
		<path d="M114.7,483.6c-5.8,0.7-11.7,1.1-17.9,1.9c-0.7,0.1-1.4,0.2-2.2,0.3c-0.1-0.3-0.1-0.6-0.2-1c-0.1-0.8-0.2-1.6-0.2-2.2
			c3.9-2.8,9.3-5.4,13.5-8.3c-4.3,0.6-10,1.4-14.2,2l-0.3-3.9c8.4-0.9,15.5-1.8,23.4-2.7l0.6,3.3c-4.5,3-9.3,5.4-14.1,8.4l14.6-2
			l0.5,3.9C116.9,483.3,115.8,483.4,114.7,483.6z"/>
		<path d="M108,500.8c-3.5,0.8-6.8,1.3-8.3,0.6c-1.1-0.5-1.9-0.9-2.8-2.2c-0.1-0.6-0.3-1.2-0.4-1.8c-0.4-1.8-0.6-3.7,0.6-4.9
			c1.7-1.7,6.9-2.8,10.7-3.8c1.3-0.3,2.9-0.8,4.4-1.1c2.6-0.6,5.1-0.8,6.3,0.6c0.6,0.7,1.3,2.2,1.6,3.8c0.3,1.4,0.4,2.8-0.1,3.8
			c-0.7,1.4-2,2.4-3.4,2.8C114,499.2,110.9,500.1,108,500.8z M115.9,495c1.2-0.4,1-1.7,0.7-2.6c-0.4-0.8-1-1.3-1.9-1.2
			c-5.1,1-9.2,2.2-13.9,3.6c-0.8,0.2-0.9,1.1-0.8,1.8c0.1,0.3,0.2,0.5,0.3,0.7c0.3,1.1,1.6,1.1,2.3,0.9
			C106.5,497.4,112.3,496.2,115.9,495z"/>
		<path d="M120.7,508.3c-2.8,0.8-6.3,1.9-9.8,3c-2.8,0.8-6.5,2-9.5,2.8l-1.2-3.7l5.7-1.6l13.5-4.2c-0.3-1.3-0.9-2.5-1.3-3.8
			c0.3-0.1,0.6-0.2,0.9-0.2c1.1-0.3,1.7-0.6,2.2-0.8c0.9,1.8,1.5,3.6,2.1,5.5c0.7,2.1,1.2,4.2,1.8,6.1c-0.6,0.2-1.3,0.4-3.2,1
			C121.6,511.2,121.2,509.5,120.7,508.3z"/>
		<path d="M107.4,529.9c1.5-0.6,4.6-1.7,6.7-2.6c0.1,0,0.2-0.1,15-6.9c0.3,0.4,0.5,0.9,0.7,1.3c0.4,0.8,0.6,1.7,1,2.5
			c-6.7,3.2-14.4,6.7-21.3,9.8L107.4,529.9z"/>
		<path d="M135.3,541.8c-5.7,3-11.6,5.9-17.6,8.9c-0.4-0.8-1-1.8-1.4-2.6c2.7-4,6-7.9,8.4-12c-3.8,2.2-7.7,4.3-11.4,6.5l-1.8-3.3
			l20.8-11.2l1.2,2.2c-3.1,4.4-6.2,8.9-9.6,13.4l12.9-7.2l1.9,3.5C137.6,540.5,136.5,541.1,135.3,541.8z"/>
		<path d="M125.5,563c-1.2-1.8-3.8-6.1-1.3-8.8c1.2-1.3,3.3-3,5.8-4.7c2.1-1.4,4.5-2.7,6.9-3.8c2-0.9,4.4-0.5,5.4,0.2
			c0.8,0.6,1.8,1.9,2.7,3.2c0.2,0.3,0.4,0.7,0.6,1l-2.9,1.8c-0.9-1.3-2.5-3.1-5-2.6c-3.9,2.1-5.8,3.1-9,5.6c-2.4,1.9-1.1,4.7,0,6.3
			c-0.6,0.5-1.2,1-2,1.5c-0.3,0.2-0.6,0.4-1.1,0.7C125.7,563.4,125.6,563.2,125.5,563z"/>
		<path d="M129.2,567.9l0-0.3l18.2-14.4l0.2-0.2l2,2.8l-15.3,12.8c0.8,1.2,2,2.7,2.9,3.8c-0.5,0.4-1.1,0.9-1.7,1.3
			c-0.4,0.3-0.8,0.6-1.1,0.9L129.2,567.9z"/>
		<path d="M155.6,576.1c-4.1,3.7-8.3,7.3-10.3,7.7c-1.5,0.5-3.3-0.2-4.6-1c-0.1-0.1-0.2-0.2-0.3-0.4c-1.3-1.4-2.1-3-1.9-5
			c0.1-1.7,3.1-4.4,5.2-6.5c0.4-0.4,1-0.9,1.5-1.4c2.8-2.5,6.2-5.1,9.3-7.7l2.4,2.7l-3.2,2.9c-3.6,3.3-8.1,6.1-11,10.1
			c-0.6,1.7,1.5,3.7,3.5,1.7c4.9-3.4,8.7-7.2,13.6-11.4l2.3,2.4C161,571.2,159.1,573,155.6,576.1z"/>
		<path d="M147.7,589.6c0.7-0.8,15.3-16.3,16.3-17.3c2.5,2.3,5.2,6.3,3.9,9.8c-1.3,2.3-2.8,4.2-4.4,5.9c-1.6,1.7-3.3,3.1-4.9,4.5
			C155.7,594.8,150.4,592.1,147.7,589.6z M161.7,585.3c1.6-1.6,2.9-3.4,2.9-4.8c0-1.3-0.1-2.1-0.8-2.8c-1,0.9-2.8,2.9-3.9,4.2
			c-2.3,2.5-4.9,4.7-7,7.1l1.3,0.7c1.2,0.5,2.8,0.4,3.8-0.6C159,588,160.5,586.6,161.7,585.3z"/>
		<path d="M163.1,602.9c-1.4-1.1-2.9-2.3-4.1-3.3l1-1.4c1.2-1.5,2.4-3,3.6-4.6c3.4-4.2,7-8.3,10.1-12.1c1.7,1.2,3.4,2.6,5,3.8
			c0.6,0.5,1.1,0.9,1.6,1.3c-0.4,0.5-1,1.4-2,2.7l-3.9-2.9l-0.1,0.1l-3.7,4.3c0.8,0.6,1.6,1.3,3.3,2.6c-0.4,0.6-0.8,1.3-1.3,1.9
			c-0.2,0.2-0.4,0.4-0.6,0.6l-3.4-2.6c-1.3,1.8-3.5,4.3-4.3,5.4c1.2,1,2.5,2,3.8,3.3c-0.1,0.1-0.3,0.3-0.4,0.4
			c-0.4,0.5-0.9,1.2-1.3,1.8c-0.2,0.2-0.4,0.4-0.6,0.6C165,604.4,164.1,603.7,163.1,602.9z"/>
		<path d="M169.1,607.9c0.5-0.9,12.7-18.4,13.5-19.6c2.8,1.9,6.1,5.5,5.3,9.1c-0.9,2.5-2.1,4.6-3.5,6.5c-1.3,1.9-2.7,3.6-4.1,5.2
			C177.8,611.9,172.1,610,169.1,607.9z M182.3,601.5c1.3-1.9,2.3-3.8,2.1-5.2c-0.2-1.3-0.5-2.1-1.2-2.6c-0.8,1-2.3,3.3-3.3,4.7
			c-1.9,2.8-4.1,5.4-5.9,8.1l1.4,0.5c1.2,0.3,2.8,0,3.6-1.2C180,604.6,181.2,603.1,182.3,601.5z"/>
		<path d="M203.9,628l6.3-13.3c-2.4,2-4.9,4.3-7.6,6.9c-1,0.9-2.6,2.6-4,3.6c-0.1-0.1-0.3-0.1-0.3-0.3c0-4.6,1.2-10.5,1.2-15.2
			c-1.7,4.2-4.4,9.9-6.1,13.4c-0.7-0.3-1.4-0.7-2.2-1c-0.4-0.2-0.8-0.4-1.2-0.6l10-21.4c0.8,0.4,2.2,1,3,1.4
			c0.1,0.1,0.2,0.1,0.3,0.1c-0.1,5.1-0.6,10.4-1.1,15.8l1.4-1.4c3.3-3.4,7.1-6.4,10.4-9.1c1,0.5,2.4,1.2,3.1,1.4l-9.8,21.5
			L203.9,628z"/>
		<path d="M229.2,637.1l5.3-15.2c-2,2.3-4.9,6.2-7.2,9.1c-0.8,1-2,2.4-3.1,3c0-0.2-0.3-0.1-0.3-0.2c-0.7-4.5-0.7-10.6-1.3-15.2
			c-1.1,4.4-3.1,11.4-4.3,15.1c-0.7-0.2-1.4-0.4-2.2-0.7c-0.4-0.1-0.8-0.2-1.2-0.4l6.7-22.4c0.9,0.3,2.5,0.6,3.4,0.9
			c0.1,0,0.1,0,0.1,0c0.7,5,1.1,10,1.5,15.4l1-1.4c2.9-3.8,6.1-7.3,9-10.5c0.8,0.3,1.9,0.7,2.7,1c0.2,0.1,0.4,0.1,0.5,0.1l-7,22.5
			L229.2,637.1z"/>
		<path d="M251.1,629.9c1.1,3.5,2.1,7.4,2.8,11.5c-0.8,0.7-2.5,1-3.4,1.4l-0.3-1.1c-0.9-2.8-1.7-5.6-2.5-8.4
			c-1.4,2.3-3.9,5.5-6.2,7.8l-3.1-2.6l8.1-9.5c-1.5-3.7-2.4-7.8-3.2-10.7c0.8-0.6,2.6-0.9,3.6-1.4c0.8,2.7,2.1,6.7,2.6,9
			c1.5-1.8,4.3-5.3,6.2-7.3l2.8,2.2C256.4,623.8,253.8,626.9,251.1,629.9z"/>
		<path d="M270.9,644.5l-0.6-1.8c-1-2.7-2.4-5.5-3.4-8.2c-1.3,2.7-3.9,7-5.8,9.1c-1-0.7-1.9-1.6-2.7-2.2l6.8-10.4
			c-1.9-3.5-3.9-7.6-5.1-10.3c0.8-0.7,2.3-1,3.5-1.3c1.1,2.6,3.2,6.4,4,8.6c1.3-1.9,4-5.7,5.7-8l2.7,2.5c-2.6,3.5-4.4,5.7-6.7,9
			c1.5,3.4,4.2,7.9,5.2,11.6C273.7,643.8,271.7,643.9,270.9,644.5z"/>
		<path d="M376.6,617.7c-0.4,0.2-0.7,0.4-0.9,0.5c-0.5,0.3-0.8,0.4-1.6,0.8c-1.5-1.4-7.4-8-8.4-9.2c-0.5-0.6-1-1.3-2.2-3.1
			c0.4,0.7,0.8,1.7,1.3,3.3c0.4,1.2,2.6,9.5,3.3,12.5c-0.6,0.2-1.7,0.8-2.3,1.1c-5.4-5.4-10.9-12-16-17.2l2.6-2.5l1.5,1.2
			c3.2,2.6,7.4,7.9,8.9,9.7c-0.8-2.3-2.1-6.3-4.2-14.1l2.4-1.4c4.9,6.6,8.7,10.1,10.2,12.2c-1-3.1-3.6-11.2-4.5-15.5l3.5-0.8
			C371.8,600.4,374.8,612.1,376.6,617.7z"/>
		<path d="M389.7,602.7c0.9,1.3,1.6,2.3,1.5,3.4c-0.1,1.6-0.6,2.5-2.6,3.8c-0.7,0.5-1.9,1.4-3.1,1.5c-1,0.1-2-0.5-2.6-1.3
			c-1.4-1.7-2.2-2.8-3.5-4.6c-1.4-1.9-2.2-3-3-4.1c-1.5-2.1-0.3-4.4,1.1-5.5c0.2-0.2,0.4-0.3,0.7-0.5c1.5-1.1,3.6-2,5.3-0.6
			c0.9,0.8,1.2,1.1,1.6,1.6c0.2,0.3,0.4,0.6,0.8,1.1C386.8,598.5,387.7,599.8,389.7,602.7z M382.1,597.8c-0.6-0.7-1.4-0.9-2.2-0.3
			c-0.8,0.6-0.8,1.4-0.2,2.2c1.9,2.7,4.7,6.7,5.1,7.3c1.3,1.6,2.1,1,2.6,0.5c0.4-0.4,0.8-1.1,0.3-2.2
			C387.2,604.4,384.5,600.8,382.1,597.8z"/>
		<path d="M391.6,591.2c3.1,3.8,5.6,6.8,8.2,9.9c-0.5,0.4-1,0.9-1.5,1.3s-1,0.8-1.4,1.1c-4.2-5.1-8.1-10.2-11.8-15l2.6-2.1l1.6,2
			c1-1.3,1.8-2.3,2.9-3.7c0.8,0.5,1.4,1.1,2,1.5L391.6,591.2z"/>
		<path d="M410,592.1l-0.9-0.6c-0.4,0.8-0.6,2.2-1.6,3.1c-0.5,0.4-1.1,0.7-2,0.9c-1.2,0.1-2.5-0.7-3.6-1.8c-0.9-1-1.6-2.1-1.8-2.9
			c-0.4-1.6,0.7-3.7,2.5-5.6c-0.5-0.6-2-2.8-3.3-2.7c-1,0.1-2.3,2.2-3.1,2.9c-0.6-0.6-1.3-1.2-2-1.9c-0.1-0.1-0.2-0.3-0.4-0.4
			c0.9-1.1,1.8-2.1,2.6-2.8c1-0.9,1.8-1.5,2.5-1.5c0.6,0,1.6,0.4,1.9,0.5c1.2,0.5,7.4,8,11.5,10.6L410,592.1z M403.1,589.1
			c-0.2,0.5-0.4,1.4,0.1,2.2c0.9,1,1.7,1.6,2.6,0.7c0.9-1.4,1-2.4-1.3-4.7C403.5,588.3,403.3,588.7,403.1,589.1z"/>
		<path d="M421.2,580.5c-3.5-3.3-6.6-6-10-8.7c-0.6-0.1-1,0.1-1.3,0.4c-0.6,0.6-0.8,1.7-0.9,2.5c2.9,2.8,6.4,5.7,9.7,8.7
			c-0.3,0.3-0.5,0.7-0.8,1c-0.5,0.6-1,1-1.6,1.7l-13.2-12.1c0.9-1,1.4-1.7,2.2-2.6c0.5,0.5,1.1,0.9,1.5,1.3c0.4-1.3,0.7-2.9,1.6-3.9
			c0.4-0.4,0.8-0.7,1.4-0.9c1.9-0.1,3.6,1.1,5.1,2.4c0.6,0.5,1.1,1.1,1.7,1.5c1.5,1.3,3.1,2.7,4.9,4.3c0.7,0.6,1.4,1.3,2.1,2
			L421.2,580.5z"/>
		<path d="M438.1,558.4c-0.6,0.9-1.2,1.7-1.9,2.6l-9.7-6.8c-1.1-0.8-2.1-0.2-2.6,0.5c-0.2,0.2-0.3,0.5-0.3,0.7
			c-0.4,1.8,1.9,3.3,3.8,4.5c2.3,1.5,4.5,3,6.5,4.5l-2,2.8c-3.2-2.1-6.2-4.2-9.2-6.2c-3.6-2.5-6.9-4.8-9.9-7c0.5-1,1-2.4,1.6-3.2
			c1.2,0.7,3.5,2.3,6.2,4.2c0.1-1.4,0.4-2.5,1-3.4c0.4-0.6,0.9-1.1,1.5-1.6c1.9-0.5,4.2,0.7,6.4,2.3c0.9,0.6,1.9,1.3,2.8,2
			L438.1,558.4z"/>
		<path d="M444.1,548.2l-1.1-0.3c-0.2,0.9,0,2.3-0.6,3.4c-0.3,0.5-0.8,1-1.7,1.4c-1.1,0.5-2.6,0.1-4-0.7c-1.1-0.7-2.1-1.5-2.5-2.2
			c-0.8-1.4-0.4-3.7,0.8-6.1c-0.7-0.4-2.8-2.1-3.9-1.6c-0.9,0.4-1.6,2.8-2.1,3.7c-0.8-0.4-1.6-0.8-2.5-1.3c-0.2-0.1-0.3-0.2-0.5-0.3
			c0.6-1.3,1.1-2.5,1.7-3.5c0.7-1.1,1.3-2,2-2.2c0.6-0.2,1.6-0.1,2,0c1.3,0.2,9.4,5.4,14,6.7L444.1,548.2z M436.7,547.3
			c-0.1,0.5,0,1.5,0.7,2.1c1.2,0.7,2.1,1.1,2.7-0.1c0.5-1.6,0.3-2.6-2.6-4.1C436.8,546.5,436.7,546.9,436.7,547.3z"/>
		<path d="M451.9,533.8c-0.2,0.7-0.4,1.4-0.7,2c-0.6,1.2-1.4,2.2-2.5,3c-0.7,0.3-1.2,0.2-1.8,0.2c-3.8-1.3-7.7-3.3-11.3-4.8
			c-0.3,0.6-0.5,1.1-0.9,1.7c-1.1-0.5-2.1-1-3.1-1.4l0.9-1.9l-4.6-2.1l1.6-3.1l4.3,2.1c0.1,0,1-1.9,1.4-2.9c0.8,0.3,2.3,1,3.2,1.3
			c-0.5,0.8-1,2.1-1.4,3l0.8,0.4l8,3.6c2.4,0.7,2.5-0.8,3.4-2.3L451.9,533.8z"/>
		<path d="M455.9,524.3c-0.5,1.2-1.2,2.3-2.2,3c-0.7,0.4-1.4,0.2-2,0.3c-2.1-0.6-3.9-1.2-5.8-1.9c-1.5-0.6-3.1-1.3-4.9-2.1
			c-0.3,0.6-0.5,1.1-0.8,1.7c-1.1-0.5-2.1-0.8-3.2-1.2l0.8-2l-4.7-1.9l1-3.4l4.9,2l1.1-3c0.3,0.1,0.6,0.2,1,0.3
			c0.4,0.2,0.9,0.4,1.3,0.6c0.3,0.1,0.6,0.2,0.9,0.3c-0.4,0.9-0.9,2-1.3,3l8.2,3.4c2.4,1,3-0.8,3.5-2.4l2.7,0.9
			C456.4,522.9,456.2,523.7,455.9,524.3z"/>
		<path d="M452.3,507.6c-0.5,1.7-1.2,3.7-1.6,5.4c1.3,0.3,3.6,1.4,4.8,0.8c0.9-1,1.4-2.5,1.7-3.8l3.2,1c-0.2,0.7-0.4,1.5-0.6,2.2
			c-0.5,1.6-1.3,3.1-2.3,3.7c-1.8,0.9-4.7,0.2-7.3-0.6c-0.5-0.2-1-0.4-1.5-0.5c-0.6-0.2-1.3-0.4-2-0.6c-2.4-0.8-5-1.8-4.9-3.9
			c0.2-0.8,0.3-1.8,0.6-2.7c0.4-1.2,1-2.3,2.1-2.6c1.1-0.3,2.5,0,4,0.4c1.1,0.4,2.2,0.8,3.2,1.1L452.3,507.6z M444.7,509.4
			c-0.6,1.8,1.7,2.1,2.8,2.5c0.4-0.8,0.6-1.8,1-2.8l-2.1-0.7C445.6,508.1,444.9,508.6,444.7,509.4z"/>
		<path d="M463.4,500.4c-0.3,1.3-0.9,2.4-1.8,3.3c-0.6,0.5-1.4,0.4-2,0.6c-2.2-0.3-4.1-0.7-6-1.1c-1.6-0.4-3.3-0.9-5.2-1.4
			c-0.2,0.7-0.3,1.2-0.5,1.8c-1.2-0.3-2.2-0.5-3.3-0.8l0.5-2.1l-4.9-1.2l0.5-3.5l5.1,1.3l0.7-3.1c0.3,0,0.7,0.1,1.1,0.2
			c0.5,0.1,0.9,0.3,1.4,0.4c0.3,0.1,0.7,0.1,0.9,0.2c-0.3,0.9-0.6,2.1-0.8,3.1l8.6,2.3c2.6,0.7,2.9-1.2,3.2-2.9l2.8,0.5
			C463.6,498.9,463.6,499.7,463.4,500.4z"/>
		<path d="M451.8,475.2c3.2,0.4,6.3,0.5,8.1,1.9c0.8,0.6,1.1,1.9,1,2.7c0.4,0.1,1.3,0.3,1.9,0.1c1.1-0.8,0.5-2.6,2-3.7
			c0.8-0.6,2.1-0.7,3.4-0.5c1.2,0.2,2.4,0.6,2.9,1.2c0.8,1.1,0.8,2.9,0.6,4.8c-0.2,1.4-0.5,2.8-0.7,4l-3-0.4
			c0.3-2.4,1.1-5.9,0.4-6.4c-0.8-0.6-2.2-0.6-2.4,0.7c-0.4,0.7-0.7,2.9-1.7,3.2c-1.6,0.6-2.6,0.5-4.2,0c-0.9,1.3-2.4,1.8-4,1.6
			c-0.7-0.1-1.4-0.1-2-0.2c-1.6-0.2-2.8-0.5-4-0.9c-1.1-0.3-1.6-1.5-1.8-2.5c0-0.6,0-1.3,0-2c0.1-0.7,0.3-1.5,0.9-2.1l-1.8-2.7
			c0.8-0.8,1.6-1.2,2.6-1.5C450.6,473.7,451.1,474.1,451.8,475.2z M451.9,480.8l3.2,0.5c1.9,0.3,1.8,0.2,2.1-0.1
			c0.3-0.3,0.4-1.9-0.3-2.1c-1.4-0.5-2-0.4-4.5-0.7C450.7,477.8,450.5,480.6,451.9,480.8z"/>
		<path d="M459.7,462.8c0,1.7-0.2,3.9-0.2,5.6c1.3,0,3.8,0.4,4.8-0.4c0.6-1.2,0.7-2.8,0.7-4.1l3.3,0.2c0,0.7,0,1.5,0,2.3
			c-0.1,1.7-0.4,3.3-1.3,4.1c-1.5,1.3-4.5,1.4-7.3,1.2c-0.6,0-1.1-0.1-1.6-0.1c-0.6,0-1.3-0.1-2.1-0.1c-2.5-0.2-5.2-0.5-5.7-2.6
			c0-0.8-0.1-1.9-0.1-2.8c0.1-1.3,0.4-2.5,1.4-3c1-0.6,2.5-0.7,3.9-0.6c1.2,0.1,2.3,0.2,3.4,0.3L459.7,462.8z M452.8,466.4
			c-0.1,1.8,2.1,1.7,3.3,1.7c0.2-0.8,0.1-1.9,0.2-3l-2.2-0.2C453.4,464.9,452.8,465.6,452.8,466.4z"/>
		<path d="M468.8,454.2c0,1.7-0.3,3.3-2.2,3.5c-4.6,0.5-9,0.4-13.7,0.5l-8.4,0.2c-0.1-0.6-0.1-1.1-0.1-1.6c0-0.6,0-1.2,0.1-2
			l9.9-0.1c2.9,0,6-0.1,9.3-0.2c1.3,0,1.2-1.4,1.3-2.6c1-0.1,2-0.2,2.9-0.2c0.3,0,0.6,0,0.8,0.1
			C468.7,452.4,468.8,453.3,468.8,454.2z"/>
		<path d="M459.1,439.7c0.2,1.7,0.3,3.9,0.5,5.6c1.3-0.2,3.8-0.1,4.7-1.1c0.5-1.3,0.3-2.8,0.2-4.2l3.3-0.3c0.1,0.7,0.2,1.5,0.3,2.3
			c0.1,1.7,0,3.3-0.8,4.3c-1.3,1.5-4.3,2-7,2.1c-0.6,0-1.1,0-1.6,0.1c-0.6,0-1.3,0.1-2,0.1c-2.5,0.2-5.3,0.2-6-1.8
			c-0.1-0.8-0.4-1.8-0.4-2.8c-0.1-1.3,0.1-2.5,1-3.2c0.9-0.7,2.4-1,3.8-1.1c1.2-0.1,2.4-0.1,3.4-0.1L459.1,439.7z M452.7,444.1
			c0.1,1.8,2.3,1.4,3.5,1.3c0.1-0.8-0.1-1.9-0.1-3l-2.2,0.1C453.1,442.6,452.6,443.3,452.7,444.1z"/>
		<path d="M450.6,428.5c3.2-0.5,6.2-1.2,8.3-0.4c1,0.4,1.5,1.6,1.7,2.3c0.4-0.1,1.3-0.1,1.8-0.4c0.8-1.1-0.3-2.6,0.9-4.1
			c0.6-0.7,1.9-1.2,3.2-1.4c1.2-0.2,2.5-0.1,3.1,0.4c1.1,0.9,1.6,2.6,1.9,4.5c0.2,1.4,0.3,2.8,0.4,4l-2.9,0.4
			c-0.4-2.4-0.5-6-1.3-6.3c-0.9-0.3-2.3,0-2.1,1.3c-0.2,0.8,0.1,3-0.8,3.6c-1.4,1-2.4,1.1-4,1.2c-0.5,1.5-1.9,2.3-3.4,2.6
			c-0.7,0.1-1.3,0.2-1.9,0.3c-1.6,0.2-2.8,0.3-4.1,0.2c-1.2,0-1.9-1-2.4-1.9c-0.2-0.6-0.4-1.2-0.5-1.9c-0.1-0.7-0.1-1.5,0.2-2.3
			l-2.4-2.1c0.6-1,1.2-1.6,2.1-2.1C449.1,427.4,449.7,427.6,450.6,428.5z M452.2,433.9l3.2-0.4c1.9-0.2,1.8-0.3,2-0.7
			c0.2-0.4-0.1-1.9-0.9-2c-1.5-0.1-2,0.1-4.6,0.5C450.3,431.3,450.8,434.1,452.2,433.9z"/>
		<path d="M455,414.4c0.4,1.7,0.8,3.8,1.3,5.4c1.3-0.4,3.8-0.6,4.5-1.7c0.3-1.4-0.1-2.8-0.4-4.2l3.3-0.7c0.2,0.7,0.4,1.5,0.6,2.2
			c0.4,1.7,0.5,3.3-0.2,4.3c-1.1,1.7-4,2.6-6.7,3.1c-0.6,0.1-1.1,0.2-1.6,0.3c-0.6,0.1-1.3,0.3-2,0.4c-2.5,0.5-5.2,1-6.2-0.9
			c-0.3-0.8-0.6-1.8-0.8-2.7c-0.3-1.3-0.3-2.5,0.5-3.3c0.8-0.8,2.2-1.3,3.6-1.6c1.1-0.2,2.3-0.4,3.4-0.6L455,414.4z M449.2,419.8
			c0.4,1.8,2.5,1,3.6,0.8c-0.1-0.8-0.4-1.9-0.6-3l-2.1,0.4C449.4,418.1,449.1,419,449.2,419.8z"/>
		<path d="M458.7,397l1.1,3.5c-4.6,1.3-9,2.1-12.7,3.6c-1.2,1.2,0.7,2.8,1.5,3.7c3.9-1.1,8-2.4,12.2-3.7c0.4,1.5,0.7,2.1,1.1,3.3
			l-16.9,5.2c0-0.1-0.1-0.2-0.1-0.3c-0.3-1.1-0.8-2-1-2.9c0.7-0.2,1.3-0.5,1.8-0.7c-0.9-0.9-2-2.2-2.5-3.5c-0.2-0.6-0.2-1.2-0.1-1.8
			c0.8-1.8,2.3-2.5,3.9-3c0.9-0.3,1.8-0.5,2.7-0.7C452.4,398.7,455.4,397.8,458.7,397z"/>
		<path d="M445.7,392.3c0.9-0.3,1.8-0.6,2.6-0.9c0.4-0.1,0.7-0.3,1-0.4c0.1,0.2,0.1,0.4,0.2,0.6c0.3,0.8,0.7,1.7,1,2.1
			c-0.8,0.4-1.5,0.8-2.2,1c-2.5,1-4.5,1-7.3-0.7c-0.8-0.5-1.9-0.5-2.7-0.1c-0.8,0.3-1.4,0.9-1.4,1.5c-0.5,1.6,0.6,3.3,0.9,4.9
			l-3,1.1c-0.3-0.9-0.6-1.7-0.9-2.6c-0.6-1.9-1.1-3.7-0.2-5.5c0.6-1.2,1.4-1.9,2.5-2.3c0.9-0.3,1.9-0.5,2.8-0.4
			C442.1,390.7,443.2,392.6,445.7,392.3z M456.5,389.5c0.3,0.9,0.2,1.9-0.3,2.6c-0.3,0.4-0.6,0.6-0.9,0.7c-0.7,0.3-1.8,0.1-2.1-0.1
			c-0.6-0.3-1.1-0.8-1.3-1.5c-0.1-0.3-0.2-0.7-0.1-1c0.2-1,0.7-1.7,1.5-2c0.3-0.1,0.6-0.2,1-0.2
			C455.3,387.9,456.1,388.6,456.5,389.5z"/>
	</g>
</g>
</svg>
